# xmcd
#
# Track frame offsets:
#   150
#   21385
#   39666
#   57295
#   83850
#   104634
#   123684
#   145672
#   164610
#   189347
#   210748
#   233158
#   258337
#   278704
#   299321
#   320064
#   340058
#
# Disc length: 4742 seconds
#
# Revision: 4
# Processed by: cddbd v1.5.2PL0 Copyright (c) Steve Scherf et al.
# Submitted via: Media_Universe 3.0
#
DISCID=06128411
DTITLE=Janet Jackson - Janet Jackson - The Best [Disc 1]
DYEAR=2009
DGENRE=Pop
TTITLE0=Janet Jackson - What Have You Done For Me Lately
TTITLE1=Janet Jackson - Nasty
TTITLE2=Janet Jackson - When I Think Of You
TTITLE3=Janet Jackson - Control
TTITLE4=Janet Jackson - Let's Wait Awhile (Single Remix Version)
TTITLE5=Janet Jackson - The Pleasure Principle
TTITLE6=Janet Jackson - Diamonds (Herb Alpert with Janet Jackson )
TTITLE7=Janet Jackson - Miss You Much
TTITLE8=Janet Jackson - Rhythm Nation
TTITLE9=Janet Jackson - Escapade
TTITLE10=Janet Jackson - Alright (7'' Video Version with Rap)
TTITLE11=Janet Jackson - Come Back To Me
TTITLE12=Janet Jackson - Black Cat (Video Mix/Short Solo Single Version)
TTITLE13=Janet Jackson - Love Will Never Do (Without You)
TTITLE14=Janet Jackson - The Best Things In Life Are Free (Luther Vandross and Janet Jackson with special guests BBD and Ralph Tresvant)
TTITLE15=Janet Jackson - That's The Way Love Goes
TTITLE16=Janet Jackson - When I Think Of You (David Morales Remix Edit)
EXTD=YEAR: 2009
EXTT0=
EXTT1=
EXTT2=
EXTT3=
EXTT4=
EXTT5=
EXTT6=
EXTT7=
EXTT8=
EXTT9=
EXTT10=
EXTT11=
EXTT12=
EXTT13=
EXTT14=
EXTT15=
EXTT16=
PLAYORDER=
